# xmcd
#
# Track frame offsets:
#	150
#	15357
#	26044
#	38445
#	52100
#	65775
#	80757
#	97447
#	111379
#	125628
#	144425
#	158185
#	171111
#	190122
#	206742
#
# Disc length: 2948 seconds
#
# Revision: 0
# Processed by: cddbd v1.5.2PL0 Copyright (c) Steve Scherf et al.
# Submitted via: audiograbber 1.83.01
#
DISCID=db0b820f
DTITLE=Various Artist - The Ultimate Line Dancing Collection
DYEAR=1997
DGENRE=Country
TTITLE0=Achy Breaky Heart
TTITLE1=Hello Mary Lou
TTITLE2=Chrystal Chandeliers
TTITLE3=Rhinestone Cowboy
TTITLE4=I'm Gonna Be A Country Boy Again
TTITLE5=Blanket On The Ground
TTITLE6=Jambalaya
TTITLE7=Top Of The World
TTITLE8=Country Roads
TTITLE9=Lyin' Eyes
TTITLE10=Let Me Be There
TTITLE11=Jolene
TTITLE12=Whiskey In The Jar
TTITLE13=Blowing Up A Storm
TTITLE14=Cotton Eyed Joe
EXTD=
EXTT0=
EXTT1=
EXTT2=
EXTT3=
EXTT4=
EXTT5=
EXTT6=
EXTT7=
EXTT8=
EXTT9=
EXTT10=
EXTT11=
EXTT12=
EXTT13=
EXTT14=
PLAYORDER=
